<svg xmlns="http://www.w3.org/2000/svg" version="1.1" xmlns:xlink="http://www.w3.org/1999/xlink" xmlns:svgjs="http://svgjs.dev/svgjs" width="1000" height="1000" viewBox="0 0 1000 1000"><g transform="matrix(1,0,0,1,-0.14221556886212738,-0.14221556886229791)"><svg viewBox="0 0 334 334" data-background-color="#ffffff" preserveAspectRatio="xMidYMid meet" height="1000" width="1000" xmlns="http://www.w3.org/2000/svg" xmlns:xlink="http://www.w3.org/1999/xlink"><g id="tight-bounds" transform="matrix(1,0,0,1,0.04749999999998522,0.04750000000001364)"><svg viewBox="0 0 333.90454557049503 333.90454557049503" height="333.90454557049503" width="333.90454557049503"><g><svg></svg></g><g><svg viewBox="0 0 333.90454557049503 333.90454557049503" height="333.90454557049503" width="333.90454557049503"><g><path d="M0 166.952c0-92.205 74.747-166.952 166.952-166.952 92.205 0 166.952 74.747 166.953 166.952 0 92.205-74.747 166.952-166.953 166.953-92.205 0-166.952-74.747-166.952-166.953zM166.952 316.63c82.665 0 149.677-67.013 149.678-149.678 0-82.665-67.013-149.677-149.678-149.677-82.665 0-149.677 67.013-149.677 149.677 0 82.665 67.013 149.677 149.677 149.678z" data-fill-palette-color="tertiary" fill="#2ecc40" stroke="transparent"></path><ellipse rx="160.27418187383762" ry="160.27418187383762" cx="166.95227278524752" cy="166.95227278524752" fill="#2ecc40" stroke="transparent" stroke-width="0" fill-opacity="1" data-fill-palette-color="tertiary"></ellipse></g><g transform="matrix(1,0,0,1,76.4804058912358,71.17305217166896)"><svg viewBox="0 0 180.94373378802342 191.55844122715712" height="191.55844122715712" width="180.94373378802342"><g><svg viewBox="0 0 180.94373378802342 191.55844122715712" height="191.55844122715712" width="180.94373378802342"><g><svg viewBox="0 0 180.94373378802342 191.55844122715712" height="191.55844122715712" width="180.94373378802342"><g><svg viewBox="0 0 180.94373378802342 191.55844122715712" height="191.55844122715712" width="180.94373378802342"><g id="textblocktransform"><svg viewBox="0 0 180.94373378802342 191.55844122715712" height="191.55844122715712" width="180.94373378802342" id="textblock"><g><svg viewBox="0 0 180.94373378802342 191.55844122715712" height="191.55844122715712" width="180.94373378802342"><g transform="matrix(1,0,0,1,0,0)"><svg width="180.94373378802342" viewBox="2.200000047683716 -37.11000061035156 35.790000915527344 37.88999938964844" height="191.55844122715712" data-palette-color="#ffffff"><path d="M11.67 0.63L8.79 0.63Q8.11 0.63 7.2 0.67 6.3 0.71 5.81 0.73 5.32 0.76 4.7 0.72 4.08 0.68 3.76 0.55 3.44 0.42 3.09 0.15 2.73-0.12 2.58-0.59 2.42-1.05 2.31-1.73 2.2-2.42 2.2-3.37L2.2-3.37Q2.2-8.64 2.39-17.76 2.59-26.88 2.59-31.15L2.59-31.15Q2.59-36.43 3.13-36.72L3.13-36.72 12.21-36.72Q14.62-36.72 15.81-36.44 16.99-36.16 17.38-35.6 17.77-35.03 17.77-33.89L17.77-33.89Q17.77-33.54 17.72-32.56 17.68-31.57 17.68-30.91L17.68-30.91 17.68-29.79Q17.68-29 17.6-27.44 17.53-25.88 17.53-25.1L17.53-25.1 17.53-24.61Q17.58-24.46 17.58-24.22L17.58-24.22 18.55-24.22Q18.97-24.22 19.82-24.19 20.68-24.17 21.09-24.17L21.09-24.17Q22.22-24.17 22.75-24.32L22.75-24.32 22.75-34.47Q22.75-35.69 22.88-36.22 23-36.74 23.22-36.88 23.44-37.01 24.02-37.01L24.02-37.01Q24.34-37.01 25.05-36.99 25.76-36.96 26.07-36.96L26.07-36.96 27.88-37.04Q29.71-37.11 31.15-37.11L31.15-37.11Q37.79-37.11 37.79-35.64L37.79-35.64Q37.79-35.25 37.82-34.52 37.84-33.79 37.84-33.4L37.84-33.4Q37.84-32.54 37.82-30.91 37.79-29.27 37.79-28.42L37.79-28.42Q37.79-25.88 37.87-20.85 37.94-15.82 37.94-13.28L37.94-13.28Q37.94-13.06 37.92-12.73 37.89-12.4 37.89-12.3L37.89-12.3 37.89-11.13Q37.89-9.57 37.94-8.79L37.94-8.79 37.94-8.25Q37.89-8.15 37.89-7.96L37.89-7.96Q37.89-6.67 37.94-4.03 37.99-1.39 37.99-0.1L37.99-0.1Q37.82 0.78 33.3 0.78L33.3 0.78 23.14 0.78 22.41-0.24 22.41-1.86Q22.41-3.49 22.44-6.69 22.46-9.89 22.46-11.52L22.46-11.52Q22.46-12.08 22.33-12.29 22.19-12.5 21.78-12.5L21.78-12.5 20.9-12.5Q19.24-12.5 17.87-12.3L17.87-12.3Q17.87-10.28 17.82-6.21 17.77-2.15 17.77-0.1L17.77-0.1Q17.48 0.63 11.67 0.63L11.67 0.63Z" opacity="1" transform="matrix(1,0,0,1,0,0)" fill="#ffffff" class="wordmark-text-0" data-fill-palette-color="quaternary" id="text-0"></path></svg></g></svg></g></svg></g></svg></g><g></g></svg></g></svg></g></svg></g></svg></g><defs></defs></svg><rect width="333.90454557049503" height="333.90454557049503" fill="none" stroke="none" visibility="hidden"></rect></g></svg></g></svg>